<?xml version="1.0" encoding="UTF-8"?><svg id="_レイヤー_2" xmlns="http://www.w3.org/2000/svg" viewBox="0 0 411.76 72.78"><defs><style>.cls-1{fill:#231815;}.cls-1,.cls-2{stroke-width:0px;}.cls-2{fill:#ea5504;}</style></defs><g id="_レイヤー_3"><polygon class="cls-1" points="100.55 35.55 91.78 44.45 86.97 35.55 79.13 35.55 72.67 65.84 80.93 65.84 84.84 47.52 84.91 47.52 89.39 55.68 97.5 47.52 97.57 47.52 93.67 65.84 101.93 65.84 108.39 35.55 100.55 35.55"/><polygon class="cls-1" points="140.16 43.86 135.48 65.84 143.74 65.84 148.42 43.86 140.16 43.86"/><path class="cls-1" d="m165.44,43.37c.74-3.45-.42-7.82-7.9-7.82h-29.1l-5,23.47h-3.09c-1.62,0-6.1,0-4.87-5.75,1.36-6.38,7.08-13.83,9.72-17.72h-8.92c-4.13,5.6-7.93,11.49-9.28,17.83-1.49,7.01.62,12.46,9.85,12.46h13.39l5-23.47h17.09c1.47,0,4.01-.15,3.57,1.89-.61,2.85-6.35,5.71-8.85,7.3,1.68,6.79,4.19,13.31,8.09,18.87l7.89-4.6c-2.7-3.97-4.95-8.27-6.4-12.9,4.1-2.22,7.85-5.15,8.79-9.57Z"/><path class="cls-1" d="m187.28,42.37h6.48l-.48-6.82h-4.05c-5.94,0-11.23.7-16.54,4.97-4.74,3.78-7.65,9.27-8.77,14.53-1.14,5.34-.42,10.64,1.69,15.05l7.62-4.26c-1.2-2.89-1.81-6.19-1.12-9.6h9.03l-2.05,9.6h8.26l4.68-21.98h-8.26l-1.17,5.56h-8.22c1.6-2.59,4.05-7.04,12.89-7.04Z"/><polygon class="cls-1" points="204.99 35.55 198.53 65.84 206.79 65.84 213.25 35.55 204.99 35.55"/><polygon class="cls-1" points="230.08 35.55 220.78 35.55 210.42 49.19 215.28 65.84 225.13 65.84 219.71 48.9 230.08 35.55"/><path class="cls-1" d="m281.25,35.55l-8.77,8.9-4.82-8.9h-15.47c-5.94,0-11.23.7-16.54,4.97-4.74,3.78-7.65,9.27-8.77,14.53-1.14,5.34-.42,10.64,1.69,15.05l7.62-4.26c-1.2-2.89-1.81-6.19-1.12-9.6h9.03l-2.05,9.6h8.26l4.68-21.98h-8.26l-1.17,5.56h-8.22c1.6-2.59,4.05-7.04,12.89-7.04h8.14l-5,23.47h8.26l3.91-18.32h.08l4.47,8.16,8.11-8.16h.08l-3.91,18.32h8.26l6.46-30.29h-7.83Z"/><path class="cls-1" d="m339.73,42.13c.52-2.42,1.99-4.9,4.56-6.58h-25.82l-3.38,6.82h8.8l-5,23.47h8.26l5-23.47h7.55c.02-.08.01-.16.03-.24Z"/><path class="cls-1" d="m351.74,45.49c-.45-.59-1.08-1.26-.9-2.11.25-1.19,2.45-1,3.26-1h6.95l-.47-6.82h-8.88c-6.91,0-9.41,4.3-9.99,7.01-.64,3,.83,5.15,2.31,7.27l4.3,6.08c.45.59,1.08,1.26.9,2.11-.25,1.19-2.45,1-3.26,1h-7.49l.48,6.82h9.61c6.91,0,9.41-4.3,9.99-7.01.64-3-.83-5.15-2.36-7.23l-4.45-6.12Z"/><path class="cls-1" d="m62.94,34.88c-7.45,0-14.6,7.08-15.96,15.81-1.36,8.73,3.57,15.81,11.02,15.81s14.6-7.08,15.96-15.81c1.36-8.73-3.57-15.81-11.02-15.81Zm3.87,15.81c-.72,4.64-4.15,8.4-7.65,8.4s-5.75-3.76-5.03-8.4c.72-4.64,4.15-8.4,7.65-8.4s5.75,3.76,5.03,8.4Z"/><path class="cls-1" d="m303.57,34.88c-7.45,0-14.6,7.08-15.96,15.81-1.36,8.73,3.57,15.81,11.02,15.81s14.6-7.08,15.96-15.81c1.36-8.73-3.57-15.81-11.02-15.81Zm3.87,15.81c-.72,4.64-4.15,8.4-7.65,8.4s-5.75-3.76-5.03-8.4c.72-4.64,4.15-8.4,7.65-8.4s5.75,3.76,5.03,8.4Z"/><path class="cls-1" d="m394.62,24.94l-7.9,37.06h-4.87c-2.56,0-9.63,0-7.69-9.07,2.15-10.07,11.18-21.84,15.35-27.99h-6.82,0H37.14l-3.47,16.28-11.03-16.28h-12.43L0,72.78h13.04l6.44-30.21h.12l10.34,16.1-3.01,14.11h13.04l8.7-40.79h321.8c-4.44,6.72-8.14,13.73-9.71,21.12-2.36,11.07.98,19.67,15.55,19.67h21.15l10.2-47.83h-13.04Z"/><polygon class="cls-2" points="409.6 15.84 12.12 15.84 11.03 21.27 408.51 21.27 409.6 15.84"/><path class="cls-1" d="m23.08,7.8c-.18.89-.72,1.04-1.87,1.04h-1.39c-.54,0-.87-.09-1.02-.27-.11-.14-.14-.37-.07-.69l.25-1.25h-3.82l-.31,1.53c-.27,1.34-.15,2.25.36,2.87.59.73,1.7,1.05,3.58,1.05h2.29c3.2,0,5.19-.64,5.84-3.92L28.54.13h-3.91l-1.54,7.68Z"/><path class="cls-1" d="m43.61,0h-5.62c-3.12,0-5.35.73-6.06,4.3l-.68,3.41c-.29,1.45-.15,2.5.43,3.2.66.81,1.89,1.17,3.98,1.17h5.62c3.12,0,5.35-.73,6.06-4.3l.68-3.41c.29-1.45.15-2.5-.43-3.2-.66-.81-1.89-1.17-3.98-1.17Zm-7.91,5.46c.28-1.38.75-2.13,2.46-2.13h4.1c.73,0,1.2.14,1.43.42.24.3.28.78.11,1.63l-.25,1.23c-.31,1.57-.7,2.13-2.27,2.13h-4.48c-.69,0-1.1-.11-1.3-.35-.22-.27-.24-.77-.05-1.7h0s.25-1.23.25-1.23Z"/><polygon class="cls-1" points="50.9 11.95 54.82 11.95 57.19 .13 53.27 .13 50.9 11.95"/><polygon class="cls-1" points="72.3 8.12 67.57 .13 61.86 .13 59.49 11.95 63.4 11.95 65 3.96 69.74 11.95 75.45 11.95 77.81 .13 73.9 .13 72.3 8.12"/><polygon class="cls-1" points="81.44 3.37 86.36 3.37 84.64 11.95 88.56 11.95 90.28 3.37 95.2 3.37 95.85 .13 82.09 .13 81.44 3.37"/><path class="cls-1" d="m118.05,0h-4.89c-4.43,0-5.09,1.58-5.54,3.82-.25,1.26-.3,2.1.18,2.69.6.74,1.92.99,5.2.99,2.78,0,4.24.01,4.5.33.07.08.07.22.02.48-.13.67-.65.81-1.5.81h-4.29c-.53,0-.87-.03-1.01-.2-.08-.1-.12-.28-.1-.54h-3.93l-.08.37c-.22,1.1-.12,1.85.3,2.37.55.67,1.64.95,3.74.95h4.25c4.61,0,5.96-.47,6.61-3.74.29-1.45.22-2.28-.25-2.85-.74-.9-2.41-1.04-5.92-1.04-2.2.01-3.52.01-3.77-.28-.07-.08-.07-.22-.02-.49.12-.6.78-.72,1.31-.72h3.88c.74,0,1.14.07,1.27.23.07.08.08.22.05.42h3.92c.18-.89.32-1.91-.25-2.61-.56-.69-1.73-1-3.69-1Z"/><polygon class="cls-1" points="126.27 3.37 131.19 3.37 129.47 11.95 133.38 11.95 135.1 3.37 140.03 3.37 140.68 .13 126.92 .13 126.27 3.37"/><path class="cls-1" d="m155.23,0h-5.62c-3.12,0-5.34.73-6.06,4.3l-.68,3.41c-.29,1.45-.15,2.5.43,3.2.66.81,1.89,1.17,3.98,1.17h5.62c3.12,0,5.35-.73,6.06-4.3l.68-3.41c.29-1.45.15-2.5-.43-3.2-.66-.81-1.89-1.17-3.98-1.17Zm-7.91,5.46c.28-1.38.75-2.13,2.46-2.13h4.1c.73,0,1.2.14,1.43.42.24.3.28.78.11,1.63l-.25,1.23c-.31,1.57-.7,2.13-2.27,2.13h-4.48c-.69,0-1.1-.11-1.3-.35-.22-.27-.24-.77-.05-1.7h0s.25-1.23.25-1.23Z"/><path class="cls-1" d="m174.11,0h-4.12c-3.12,0-5.35.73-6.06,4.3l-.68,3.41c-.29,1.45-.15,2.5.43,3.2.66.81,1.89,1.17,3.98,1.17h5.65c3.86,0,4.74-1.82,5.1-3.6l.26-1.32h-3.91l-.03.16c-.26,1.29-.64,1.42-2.17,1.42h-3.74c-.69,0-1.1-.11-1.3-.35-.22-.27-.24-.77-.05-1.7l.24-1.23c.28-1.38.75-2.13,2.46-2.13h3.82c.63,0,1.01.09,1.16.28.1.12.12.29.07.54l-.11.55h3.91l.03-.16c.33-1.57.41-2.69-.19-3.43-.64-.79-2.02-1.12-4.74-1.12Z"/><polygon class="cls-1" points="194.28 .13 189.02 4.33 187.69 4.33 188.54 .13 184.62 .13 182.25 11.95 186.17 11.95 187.05 7.56 188.34 7.56 192.52 11.95 198.04 11.95 192.11 5.94 199.71 .13 194.28 .13"/><path class="cls-1" d="m220.71,0h-4.12c-3.12,0-5.35.73-6.06,4.3l-.68,3.41c-.29,1.45-.15,2.5.43,3.21.66.81,1.89,1.17,3.98,1.17h5.65c3.86,0,4.74-1.82,5.1-3.6l.26-1.32h-3.91l-.03.16c-.26,1.29-.64,1.42-2.17,1.42h-3.74c-.69,0-1.1-.11-1.3-.35-.22-.27-.24-.77-.05-1.7l.25-1.23c.28-1.38.75-2.13,2.46-2.13h3.82c.63,0,1.01.09,1.16.28.1.12.12.29.07.54l-.1.55h3.91l.03-.16c.33-1.57.41-2.69-.2-3.43-.64-.79-2.02-1.12-4.74-1.12Z"/><path class="cls-1" d="m241.81,0h-5.62c-3.12,0-5.35.73-6.06,4.3l-.68,3.41c-.29,1.45-.15,2.5.43,3.2.66.81,1.89,1.17,3.98,1.17h5.62c3.12,0,5.35-.73,6.06-4.3l.68-3.41c.29-1.45.15-2.5-.43-3.2-.66-.81-1.89-1.17-3.98-1.17Zm.2,5.39l-.24,1.23c-.31,1.57-.7,2.13-2.27,2.13h-4.48c-.69,0-1.1-.11-1.3-.35-.23-.27-.24-.77-.05-1.7l.24-1.23c.28-1.38.75-2.13,2.46-2.13h4.1c.73,0,1.2.14,1.43.42.24.3.28.78.11,1.63Z"/><path class="cls-1" d="m262.35.13h-10.74l-2.37,11.83h3.91l.6-2.97h5.35c.46,0,.74.07.87.24.15.18.16.54.04,1.12l-.32,1.61h3.91l.42-2.1c.18-.9.12-1.55-.19-2.01-.19-.28-.46-.46-.74-.57,1.32-.49,1.78-1.45,2.05-2.78l.14-.73c.26-1.28.15-2.16-.34-2.75-.48-.59-1.34-.88-2.6-.88Zm-1.07,4.58c-.15.76-.51,1.04-1.34,1.04h-5.55l.47-2.38h5.31c.65,0,.98.07,1.12.24.11.13.13.37.06.72l-.08.38Z"/><path class="cls-1" d="m280.53.13h-9.72l-2.37,11.83h3.91l.57-2.87h6.8c3.14,0,3.97-2.93,4.15-3.82l.2-.98c.29-1.43.16-2.42-.4-3.1-.58-.71-1.61-1.05-3.15-1.05Zm-.47,4.22l-.09.44c-.09.48-.38,1.05-1.18,1.05h-5.2l.49-2.47h4.98c.46,0,.77.09.92.27.12.15.15.38.08.71Z"/><path class="cls-1" d="m300.13,0h-5.62c-3.12,0-5.35.73-6.06,4.3l-.68,3.41c-.29,1.45-.15,2.5.43,3.21.66.81,1.89,1.17,3.97,1.17h5.62c3.12,0,5.35-.73,6.06-4.3l.68-3.41c.29-1.45.15-2.5-.43-3.2-.66-.81-1.89-1.17-3.98-1.17Zm-2.32,8.75h-4.48c-.69,0-1.1-.11-1.3-.35-.23-.27-.24-.77-.05-1.7l.25-1.23c.28-1.38.75-2.13,2.46-2.13h4.1c.73,0,1.2.14,1.43.42.24.3.28.78.11,1.63l-.25,1.23c-.31,1.57-.7,2.13-2.27,2.13Z"/><path class="cls-1" d="m320.67.13h-10.74l-2.37,11.83h3.91l.59-2.97h5.35c.46,0,.74.07.87.24.15.18.17.54.05,1.12l-.32,1.61h3.91l.42-2.1c.18-.9.12-1.55-.19-2.01-.19-.28-.46-.46-.74-.57,1.32-.49,1.78-1.45,2.05-2.78l.15-.73c.26-1.28.15-2.16-.34-2.75-.48-.59-1.34-.88-2.6-.88Zm-2.41,5.62h-5.55l.48-2.38h5.31c.64,0,.98.07,1.12.24.11.13.13.37.06.72l-.08.38c-.15.76-.52,1.04-1.34,1.04Z"/><path class="cls-1" d="m334.9.13l-8.77,11.83h4.41l1.43-2.02h6.86l.69,2.02h4.32l-4.13-11.83h-4.8Zm2.98,6.95h-3.82l2.62-3.65,1.2,3.65Z"/><polygon class="cls-1" points="347.01 3.37 351.94 3.37 350.22 11.95 354.13 11.95 355.85 3.37 360.77 3.37 361.42 .13 347.66 .13 347.01 3.37"/><polygon class="cls-1" points="363.83 11.95 367.74 11.95 370.11 .13 366.2 .13 363.83 11.95"/><path class="cls-1" d="m385.69,0h-5.62c-3.12,0-5.35.73-6.06,4.3l-.68,3.41c-.29,1.45-.15,2.5.43,3.21.66.81,1.89,1.17,3.98,1.17h5.62c3.12,0,5.35-.73,6.06-4.3l.68-3.41c.29-1.45.15-2.5-.43-3.2-.66-.81-1.89-1.17-3.98-1.17Zm.2,5.39l-.25,1.23c-.31,1.57-.7,2.13-2.27,2.13h-4.48c-.69,0-1.1-.11-1.3-.35-.23-.27-.24-.77-.05-1.7l.25-1.23c.28-1.38.75-2.13,2.46-2.13h4.1c.73,0,1.2.14,1.43.42.24.3.28.78.11,1.63Z"/><polygon class="cls-1" points="407.85 .13 406.24 8.12 401.57 .22 401.51 .13 395.8 .13 393.43 11.95 397.35 11.95 398.94 3.96 403.62 11.85 403.68 11.95 409.39 11.95 411.76 .13 407.85 .13"/></g></svg>