<?xml version="1.0" encoding="UTF-8"?><svg id="_レイヤー_2" xmlns="http://www.w3.org/2000/svg" viewBox="0 0 34 34"><defs><style>.cls-1{fill:#231815;}</style></defs><g id="_レイヤー_1-2"><path class="cls-1" d="m33.49,27.08l-6.06-4.74c-.46-.36-1.29-.54-1.85-.41,0,0-2.71.63-4.11,2.02-1.98-1.27-4.09-2.95-6.28-5.14-2.19-2.19-3.87-4.3-5.14-6.28,1.4-1.4,2.02-4.11,2.02-4.11.13-.56-.05-1.4-.41-1.85L6.92.51c-.36-.46-1.08-.64-1.62-.42C5.3.1,3.25.97,1.91,2.31-.94,5.16-2.15,12.51,9.67,24.33c11.82,11.82,19.17,10.61,22.02,7.76,1.34-1.34,2.21-3.39,2.21-3.39.23-.53.04-1.26-.42-1.62Z"/><path class="cls-1" d="m22.68,15.86s-.02-.13-.05-.36c-.01-.13-.04-.22-.06-.33-.02-.11-.06-.24-.11-.4-.09-.31-.25-.65-.45-1-.11-.17-.22-.35-.35-.51-.06-.09-.13-.17-.21-.25l-.11-.12-.05-.06-.03-.03h-.01s0-.02,0-.02h0s0,0,0,0c.01.01-.03-.03.03.03-.18-.16-.41-.39-.54-.47-.14-.12-.32-.23-.49-.34-.35-.2-.69-.36-1-.45-.3-.1-.57-.15-.75-.18-.18-.02-.29-.04-.29-.04h-.05c-.29-.05-.49-.31-.45-.6.04-.29.3-.49.59-.45,0,0,.13.02.36.05.22.03.55.09.92.22.37.11.79.3,1.21.55.21.13.42.26.62.43.21.15.39.34.59.51.17.2.36.38.51.59.16.2.3.41.43.62.25.42.44.84.55,1.21.13.37.18.69.22.92.03.23.05.36.05.36.04.29-.16.55-.45.59-.29.04-.55-.16-.59-.45Z"/><path class="cls-1" d="m18.27,2.59s.31.04.86.11c.27.02.6.1.97.19.19.04.39.08.59.14.2.06.42.13.65.2.46.12.92.34,1.42.54.25.09.49.24.75.37.25.14.52.25.76.42.25.16.5.32.76.48.26.16.49.37.74.55.51.36.94.81,1.41,1.23.42.47.87.91,1.23,1.41.18.25.39.48.55.74.16.26.32.51.48.76.17.24.28.51.42.76.13.25.27.49.37.75.2.5.42.96.54,1.42.07.22.14.44.2.64.06.21.09.41.14.59.08.37.16.7.19.97.07.55.11.86.11.86.04.29-.16.55-.45.59-.29.04-.55-.16-.59-.45v-.05s-.04-.29-.11-.79c-.02-.25-.09-.55-.17-.9-.04-.17-.08-.36-.13-.55-.06-.19-.12-.39-.19-.6-.11-.42-.31-.85-.5-1.32-.08-.24-.22-.46-.34-.69-.13-.23-.23-.48-.39-.71-.15-.23-.3-.47-.45-.7-.15-.24-.33-.44-.49-.66-.28-.42-.82-.94-1.16-1.34-.44-.38-.84-.81-1.32-1.14-.23-.17-.45-.36-.68-.51-.24-.15-.47-.3-.7-.45-.22-.16-.48-.26-.71-.39-.24-.12-.45-.26-.69-.34-.46-.19-.89-.39-1.32-.5-.21-.07-.41-.13-.6-.19-.19-.05-.36-.08-.53-.12-.33-.08-.61-.15-.9-.17-.55-.07-.86-.11-.86-.11-.29-.04-.49-.3-.45-.59.04-.29.3-.49.59-.45Z"/><path class="cls-1" d="m26.52,15.87s-.03-.22-.08-.61c-.02-.21-.07-.4-.12-.62-.03-.11-.05-.23-.08-.35-.04-.13-.08-.27-.13-.41-.08-.29-.22-.58-.34-.9-.14-.31-.31-.63-.5-.96-.2-.32-.4-.65-.66-.95-.12-.16-.24-.32-.38-.46l-.2-.22-.1-.11-.05-.06-.03-.03h-.01s0-.02,0-.02h0s-.04-.04.03.03c-.32-.29-.67-.64-.96-.83-.28-.23-.61-.44-.93-.64-.32-.19-.64-.36-.96-.5-.32-.13-.61-.27-.9-.34-.28-.1-.55-.17-.78-.22-.24-.05-.44-.1-.61-.12-.34-.05-.54-.07-.54-.07h-.05c-.29-.04-.49-.31-.45-.6.04-.29.3-.49.59-.45,0,0,.22.03.61.08.19.02.42.07.69.13.27.05.56.13.88.24.32.09.65.24,1.01.38.35.16.71.34,1.07.55.35.22.72.45,1.06.73.36.25.67.58,1,.87.29.33.62.64.87,1,.28.34.51.7.73,1.06.21.36.4.72.55,1.07.14.35.3.68.38,1.01.11.32.19.61.24.88.06.26.12.49.13.69.05.39.08.61.08.61.04.29-.16.55-.45.59-.29.04-.55-.16-.59-.45Z"/></g></svg>